<svg id="Layer_1" data-name="Layer 1" xmlns="http://www.w3.org/2000/svg" viewBox="0 0 352.33 130"><defs><style>.cls-1,.cls-2,.cls-3,.cls-4,.cls-5,.cls-8,.cls-9{isolation:isolate;}.cls-2,.cls-3,.cls-4,.cls-5,.cls-8,.cls-9{font-size:60px;}.cls-2,.cls-3,.cls-4,.cls-6{fill:#e2a750;}.cls-2,.cls-3,.cls-4,.cls-5{font-family:Orbitron-Black, Orbitron;}.cls-3{letter-spacing:-0.02em;}.cls-4{letter-spacing:0.01em;}.cls-5{fill:#d50000;}.cls-7,.cls-8,.cls-9{fill:#fff;}.cls-8,.cls-9{font-family:Lato-Light, Lato;}.cls-9{letter-spacing:-0.01em;}.cls-10{fill:none;}</style></defs><title>logo</title><g class="cls-1"><text class="cls-2" transform="translate(106.07 68.55) scale(1.09 1)">sh</text><text class="cls-3" transform="translate(194.62 68.55) scale(1.09 1)">o</text><text class="cls-4" transform="translate(238.77 68.55) scale(1.09 1)">t</text><text class="cls-5" transform="translate(268.92 68.55) scale(1.09 1)">.</text></g><path class="cls-6" d="M60.63,109.11c-24.34,0-44.07-17.86-44.07-39.89s19.73-39.9,44.07-39.9,44.07,17.86,44.07,39.9h0C104.7,91.22,85,109.09,60.63,109.11Zm0-30.3c-6.88,0-12.49,5-12.53,11.22s5.51,11.31,12.4,11.34S73,96.39,73,90.16V90.1C73,83.89,67.48,78.86,60.63,78.81ZM83.69,57.93c-6.88,0-12.46,5-12.46,11.28S76.81,80.5,83.69,80.5s12.46-5,12.46-11.28S90.57,57.94,83.69,57.93Zm-46.15,0c-6.88,0-12.45,5.07-12.44,11.3S30.7,80.51,37.58,80.5,50,75.44,50,69.22,44.4,57.94,37.51,57.94Zm23.07,7.43a3.87,3.87,0,1,0,4.28,3.85,4.07,4.07,0,0,0-4.28-3.85Zm0-28.31c-6.88,0-12.48,5-12.51,11.24s5.54,11.3,12.42,11.32S73,54.61,73,48.38h0c0-6.19-5.56-11.2-12.4-11.24Z"/><path class="cls-7" d="M18.78,63.19c0-20.88,17.83-38.19,40.83-39.75-1.06,0-2.22-.14-3.24-.14C32,23.3,12.3,41.16,12.3,63.19S32,103.08,56.37,103.08a24.46,24.46,0,0,0,3.24-.14C36.61,101.4,18.81,84.07,18.78,63.19Z"/><g class="cls-1"><text class="cls-8" transform="translate(106.07 114.44)">near</text><text class="cls-9" transform="translate(222.2 114.44)">b</text><text class="cls-8" transform="translate(254.42 114.44)">y</text></g><rect id="_Slice_" data-name=" Slice " class="cls-10" width="288" height="130"/><text></text></svg>