<svg id="Layer_1" data-name="Layer 1" xmlns="http://www.w3.org/2000/svg" viewBox="0 0 288 130"><defs><style>.cls-1,.cls-7{font-size:60px;}.cls-1,.cls-5{fill:#e2a750;}.cls-1{font-family:Orbitron-Black, Orbitron;}.cls-2{letter-spacing:-0.02em;}.cls-3{letter-spacing:0.01em;}.cls-4{fill:#d50000;}.cls-6{fill:#fff;}.cls-7{fill:#3e1046;font-family:Lato-Light, Lato;}.cls-8{letter-spacing:-0.01em;}.cls-9{fill:none;}</style></defs><title>Logo</title><text class="cls-1" transform="translate(106.07 68.55) scale(1.09 1)">sh<tspan class="cls-2" x="81.24" y="0">o</tspan><tspan class="cls-3" x="121.74" y="0">t</tspan><tspan class="cls-4" x="149.4" y="0">.</tspan></text><path class="cls-5" d="M49.63,93.11c-24.34,0-44.07-17.86-44.07-39.89S25.29,13.32,49.63,13.32,93.7,31.18,93.7,53.22h0c0,22-19.74,39.87-44.07,39.89Zm0-30.3c-6.88,0-12.49,5-12.53,11.22s5.51,11.31,12.4,11.34S62,80.39,62,74.16V74.1C62,67.89,56.48,62.86,49.63,62.81ZM72.69,41.93c-6.88,0-12.46,5.05-12.46,11.28S65.81,64.5,72.69,64.5s12.46-5.05,12.46-11.28S79.57,41.94,72.69,41.93Zm-46.15,0c-6.88,0-12.45,5.07-12.44,11.3S19.7,64.51,26.58,64.5,39,59.44,39,53.22s-5.6-11.28-12.49-11.28Zm23.07,7.43a3.87,3.87,0,1,0,4.28,3.85,4.07,4.07,0,0,0-4.28-3.85Zm0-28.31c-6.88,0-12.48,5-12.51,11.24s5.54,11.3,12.42,11.32S62,38.61,62,32.38v0c0-6.19-5.56-11.2-12.4-11.24Z" transform="translate(11 16)"/><path class="cls-6" d="M7.78,47.19C7.81,26.31,25.61,9,48.61,7.44c-1.06,0-2.22-.14-3.24-.14C21,7.3,1.3,25.16,1.3,47.19S21,87.08,45.37,87.08a24.46,24.46,0,0,0,3.24-.14c-23-1.54-40.8-18.87-40.83-39.75Z" transform="translate(11 16)"/><text class="cls-7" transform="translate(106.07 114.44)">near<tspan class="cls-8" x="116.13" y="0">b</tspan><tspan x="148.35" y="0">y</tspan></text><rect id="_Slice_" data-name="&lt;Slice&gt;" class="cls-9" width="288" height="130"/></svg>